<svg xmlns="http://www.w3.org/2000/svg" version="1.1" xmlns:xlink="http://www.w3.org/1999/xlink" width="512" height="512" x="0" y="0" viewBox="0 0 450 450" style="enable-background:new 0 0 512 512" xml:space="preserve" class=""><g><path d="M360.54 408.58h-28.99c-2.76 0-5-2.24-5-5v-43.2H120.29v43.2c0 2.76-2.24 5-5 5H86.3c-2.76 0-5-2.24-5-5V233.57c0-10.75 8.75-19.49 19.49-19.49 5.21 0 10.1 2.03 13.79 5.71 3.68 3.69 5.71 8.59 5.71 13.79v87.83h225.35c10.97 0 19.9 8.93 19.9 19.9v62.29c0 2.75-2.24 4.98-5 4.98zm-23.99-10h18.99V341.3c0-5.46-4.44-9.9-9.9-9.9H115.29c-2.76 0-5-2.24-5-5v-92.83c0-2.53-.99-4.92-2.78-6.72a9.415 9.415 0 0 0-6.71-2.77c-5.24 0-9.49 4.26-9.49 9.49v165.02h18.99v-43.2c0-2.76 2.24-5 5-5h216.26c2.76 0 5 2.24 5 5v43.19z" fill="#3a7c78" opacity="1" data-original="#000000"></path><path d="M149.8 292.63c-2.76 0-5-2.24-5-5v-5.52c0-6.12-4.98-11.1-11.1-11.1h-18.4c-2.76 0-5-2.24-5-5s2.24-5 5-5h18.4c11.64 0 21.1 9.47 21.1 21.1v5.52c0 2.76-2.24 5-5 5z" fill="#3a7c78" opacity="1" data-original="#000000"></path><path d="M346.76 331.4c-2.76 0-5-2.24-5-5v-4.49c0-16.14-13.13-29.27-29.27-29.27h-197.2c-2.76 0-5-2.24-5-5s2.24-5 5-5h197.19c21.65 0 39.27 17.62 39.27 39.27v4.49c.01 2.76-2.23 5-4.99 5zM440 202.6c-.87 0-1.74-.23-2.52-.68L224.31 77.63 12.53 201.92c-1.55.91-3.46.92-5.02.03A5.027 5.027 0 0 1 5 197.6v-25.43c0-1.77.94-3.41 2.47-4.31L221.77 42.1c1.56-.92 3.49-.92 5.05-.01l215.7 125.77c1.54.9 2.48 2.54 2.48 4.32v25.43c0 1.79-.96 3.44-2.51 4.34-.77.43-1.63.65-2.49.65zM224.3 66.84c.87 0 1.74.23 2.52.68L435 188.9v-13.85L224.31 52.2 15 175.04v13.83L221.77 67.53c.78-.46 1.65-.69 2.53-.69z" fill="#3a7c78" opacity="1" data-original="#000000"></path><path d="M51.11 408.59h-22.8c-2.76 0-5-2.24-5-5V186.86c0-2.76 2.24-5 5-5s5 2.24 5 5v211.73h12.8V173.47c0-2.76 2.24-5 5-5s5 2.24 5 5v230.12c0 2.76-2.24 5-5 5zM421.41 408.59h-22.8c-2.76 0-5-2.24-5-5V173.47c0-2.76 2.24-5 5-5s5 2.24 5 5v225.12h12.8V186.77c0-2.76 2.24-5 5-5s5 2.24 5 5v216.82c0 2.76-2.24 5-5 5z" fill="#3a7c78" opacity="1" data-original="#000000"></path></g></svg>