<svg xmlns="http://www.w3.org/2000/svg" version="1.1" xmlns:xlink="http://www.w3.org/1999/xlink" width="512" height="512" x="0" y="0" viewBox="0 0 64 64" style="enable-background:new 0 0 512 512" xml:space="preserve" class=""><g><path d="M49 12.05V3a1 1 0 0 0-1-1h-4a1 1 0 0 0-1 1v9H16a14 14 0 0 0 0 28h8.51a6.959 6.959 0 0 0 4.95-2.05l1.66-1.66a.99.99 0 0 1 .71-.29h.34a.99.99 0 0 1 .71.29l1.66 1.66A6.959 6.959 0 0 0 39.49 40H43v12a4 4 0 0 1-8 0v-1h1a1 1 0 0 0 1-1v-4a1 1 0 0 0-1-1h-8a1 1 0 0 0-1 1v4a1 1 0 0 0 1 1h1v1a10.021 10.021 0 0 0 10 10 10.016 10.016 0 0 0 10-10V39.95a13.985 13.985 0 0 0 0-27.9ZM45 4h2v8h-2ZM29 47h6v2h-6Zm18 5a8.011 8.011 0 0 1-8 8 8.006 8.006 0 0 1-8-8v-1h2v1a6 6 0 1 0 12 0V40h2Zm1-14h-8.51a4.976 4.976 0 0 1-3.54-1.46l-1.66-1.66a2.956 2.956 0 0 0-2.12-.88h-.34a2.956 2.956 0 0 0-2.12.88l-1.66 1.66A4.976 4.976 0 0 1 24.51 38H16a12 12 0 0 1 0-24h32a12 12 0 0 1 0 24Z" fill="#247b63" opacity="1" data-original="#000000" class=""></path><path d="M57.977 25.316A10.193 10.193 0 0 0 47.684 16H16.316a10.193 10.193 0 0 0-10.293 9.316 9.914 9.914 0 0 0 2.677 7.51A10.039 10.039 0 0 0 16 36h7.686a4.967 4.967 0 0 0 3.535-1.464l1.071-1.072A4.971 4.971 0 0 1 31.828 32h.345a4.969 4.969 0 0 1 3.535 1.464l1.07 1.071A4.969 4.969 0 0 0 40.314 36H48a10.039 10.039 0 0 0 7.3-3.174 9.914 9.914 0 0 0 2.677-7.51Zm-4.135 6.143A8.028 8.028 0 0 1 48 34h-7.686a2.98 2.98 0 0 1-2.122-.879l-1.07-1.071A6.956 6.956 0 0 0 32.173 30h-.345a6.956 6.956 0 0 0-4.95 2.05l-1.071 1.072a3.02 3.02 0 0 1-2.121.878H16a8.028 8.028 0 0 1-5.842-2.541 7.932 7.932 0 0 1-2.14-6.009 8.188 8.188 0 0 1 8.3-7.45h31.366a8.188 8.188 0 0 1 8.3 7.45 7.932 7.932 0 0 1-2.142 6.009ZM23 46a3 3 0 1 0-3 3 3 3 0 0 0 3-3Zm-4 0a1 1 0 1 1 1 1 1 1 0 0 1-1-1ZM18 10a4 4 0 1 0-4-4 4 4 0 0 0 4 4Zm0-6a2 2 0 1 1-2 2 2 2 0 0 1 2-2ZM12 48a4 4 0 1 0 4 4 4 4 0 0 0-4-4Zm0 6a2 2 0 1 1 2-2 2 2 0 0 1-2 2ZM22 52a4 4 0 1 0 4 4 4 4 0 0 0-4-4Zm0 6a2 2 0 1 1 2-2 2 2 0 0 1-2 2Z" fill="#247b63" opacity="1" data-original="#000000" class=""></path><path d="M44.707 19.293a1 1 0 0 0-1.414 0l-8 8a1 1 0 1 0 1.414 1.414l8-8a1 1 0 0 0 0-1.414ZM48.293 20.293l-8 8a1 1 0 1 0 1.414 1.414l8-8a1 1 0 0 0-1.414-1.414Z" fill="#247b63" opacity="1" data-original="#000000" class=""></path></g></svg>